<?xml version="1.0" encoding="UTF-8"?>
<!-- Generated by Pixelmator Pro 3.5.6 -->
<svg width="64" height="64" viewBox="0 0 64 64" xmlns="http://www.w3.org/2000/svg">
    <clipPath id="clipPath1">
        <path d="M 0 0 L 64 0 L 64 64 L 0 64 Z"/>
    </clipPath>
    <g id="Group" clip-path="url(#clipPath1)">
        <path id="Path" fill="#ffffff" stroke="none" d="M 0 0 L 64 0 L 64 64 L 0 64 Z"/>
        <path id="path1" fill="#000000" stroke="none" d="M 33 48 L 33 15 L 30.9375 15 L 30.9375 17.0625 L 28.875 17.0625 L 28.875 19.125 L 26.8125 19.125 L 26.8125 21.1875 L 24.75 21.1875 L 24.75 23.25 L 22.6875 23.25 L 22.6875 25.3125 L 20.625 25.3125 L 20.625 27.375 L 18.5625 27.375 L 18.5625 29.4375 L 16.5 29.4375 L 16.5 31.5 L 14.4375 31.5 L 14.4375 33.5625 L 12.375 33.5625 L 12.375 35.625 L 10.3125 35.625 L 10.3125 37.6875 L 8.25 37.6875 L 8.25 39.75 L 6.1875 39.75 L 6.1875 41.8125 L 4.125 41.8125 L 4.125 43.875 L 2.0625 43.875 L 2.0625 45.9375 L 0 45.9375 L 0 48 L 33 48 Z"/>
        <path id="path2" fill="#ffffff" stroke="none" d="M 1 16 L 32 47 L 1 47 L 1 16 Z"/>
        <path id="path3" fill="#000000" stroke="none" d="M 31 48 L 64 48 L 64 45.9375 L 61.9375 45.9375 L 61.9375 43.875 L 59.875 43.875 L 59.875 41.8125 L 57.8125 41.8125 L 57.8125 39.75 L 55.75 39.75 L 55.75 37.6875 L 53.6875 37.6875 L 53.6875 35.625 L 51.625 35.625 L 51.625 33.5625 L 49.5625 33.5625 L 49.5625 31.5 L 47.5 31.5 L 47.5 29.4375 L 45.4375 29.4375 L 45.4375 27.375 L 43.375 27.375 L 43.375 25.3125 L 41.3125 25.3125 L 41.3125 23.25 L 39.25 23.25 L 39.25 21.1875 L 37.1875 21.1875 L 37.1875 19.125 L 35.125 19.125 L 35.125 17.0625 L 33.0625 17.0625 L 33.0625 15 L 31 15 L 31 48 Z"/>
        <path id="path4" fill="#000000" fill-rule="evenodd" stroke="none" d="M -6.1e-05 48.000099 L -6.1e-05 17.0625 L -6.1e-05 15.000099 L -6.5e-05 15 L 2.06244 15 L 2.06244 15.000099 L 2.06244 17.062401 L 4.12488 17.062401 L 4.12488 19.124901 L 6.18732 19.124901 L 6.18732 21.187401 L 4.12481 21.187401 L 4.12481 19.124901 L 2.06244 19.124901 L 2.06244 45.9375 L 28.875099 45.9375 L 28.875099 43.875198 L 26.812599 43.875198 L 26.812599 41.812698 L 24.7502 41.812698 L 24.7502 39.750198 L 26.8127 39.750198 L 26.8127 41.812698 L 28.875099 41.812698 L 28.875099 43.875099 L 30.937599 43.875099 L 30.937599 45.9375 L 33 45.9375 L 33 48 L 2.06244 48.000099 L -6.1e-05 48.000099 Z M 8.24976 23.250298 L 8.24976 21.187798 L 6.18725 21.187798 L 6.18725 23.250298 L 8.24976 23.250298 Z M 10.3126 25.312698 L 10.3126 27.375198 L 12.3751 27.375198 L 12.3751 29.437599 L 14.4375 29.437599 L 14.4375 31.5 L 16.499901 31.5 L 16.499901 33.5625 L 18.562401 33.5625 L 18.562401 35.624901 L 20.6248 35.624901 L 20.6248 37.687401 L 22.6873 37.687401 L 22.6873 35.624901 L 20.624901 35.624901 L 20.624901 33.562401 L 18.562401 33.562401 L 18.562401 31.5 L 16.5 31.5 L 16.5 29.4375 L 14.4376 29.4375 L 14.4376 27.375099 L 12.3751 27.375099 L 12.3751 25.312698 L 10.3127 25.312698 L 10.3127 23.250198 L 8.25018 23.250198 L 8.25018 25.312698 L 10.3126 25.312698 Z M 24.7498 37.687801 L 24.7498 39.750301 L 22.6873 39.750301 L 22.6873 37.687801 L 24.7498 37.687801 Z"/>
        <path id="path5" fill="#ffffff" stroke="none" d="M 32 16 L 32 47 L 63 16 L 32 16 Z"/>
        <path id="path6" fill="#000000" fill-rule="evenodd" stroke="none" d="M 30.967699 14.999901 L 61.935501 14.999901 L 63.999901 14.999901 L 64 14.999901 L 64 17.062401 L 63.999901 17.062401 L 61.935501 17.062401 L 61.935501 19.124901 L 59.871101 19.124901 L 59.871101 21.187302 L 57.806599 21.187302 L 57.806599 19.124802 L 59.870998 19.124802 L 59.870998 17.062401 L 33.0322 17.062401 L 33.0322 43.875099 L 35.0966 43.875099 L 35.0966 41.812599 L 37.161098 41.812599 L 37.161098 39.750198 L 39.225601 39.750198 L 39.225601 41.812698 L 37.161098 41.812698 L 37.161098 43.875099 L 35.096699 43.875099 L 35.096699 45.937599 L 33.0322 45.937599 L 33.0322 48 L 30.967699 48 L 30.967699 17.062401 L 30.967699 15 L 30.967699 14.999901 Z M 55.7416 23.249802 L 57.806198 23.249802 L 57.806198 21.187302 L 55.7416 21.187302 L 55.7416 23.249802 Z M 53.6772 25.312599 L 51.612701 25.312599 L 51.612701 27.375099 L 49.548302 27.375099 L 49.548302 29.4375 L 47.483799 29.4375 L 47.483799 31.499901 L 45.419399 31.499901 L 45.419399 33.562401 L 43.3549 33.562401 L 43.3549 35.624802 L 41.290501 35.624802 L 41.290501 37.687302 L 43.355 37.687302 L 43.355 35.624901 L 45.419399 35.624901 L 45.419399 33.562401 L 47.483898 33.562401 L 47.483898 31.5 L 49.548302 31.5 L 49.548302 29.437599 L 51.612801 29.437599 L 51.612801 27.375099 L 53.6772 27.375099 L 53.6772 25.312698 L 55.741699 25.312698 L 55.741699 23.250198 L 53.6772 23.250198 L 53.6772 25.312599 Z M 41.290001 39.749802 L 39.225498 39.749802 L 39.225498 37.687302 L 41.290001 37.687302 L 41.290001 39.749802 Z"/>
    </g>
</svg>
